<svg xmlns="http://www.w3.org/2000/svg" viewBox="0 0 100 100">
  <defs>
    <linearGradient id="panelGrad" x1="0%" y1="0%" x2="0%" y2="100%">
      <stop offset="0%" style="stop-color:#374151;stop-opacity:1" />
      <stop offset="100%" style="stop-color:#1f2937;stop-opacity:1" />
    </linearGradient>
    <linearGradient id="breakerGrad" x1="0%" y1="0%" x2="0%" y2="100%">
      <stop offset="0%" style="stop-color:#4b5563;stop-opacity:1" />
      <stop offset="100%" style="stop-color:#374151;stop-opacity:1" />
    </linearGradient>
  </defs>

  <!-- Panel background -->
  <rect x="10" y="5" width="80" height="90" rx="8" fill="url(#panelGrad)" stroke="#6b7280" stroke-width="2"/>

  <!-- Main breaker slot -->
  <rect x="25" y="12" width="50" height="16" rx="3" fill="#111827" stroke="#374151" stroke-width="1"/>
  <rect x="42" y="15" width="16" height="10" rx="2" fill="url(#breakerGrad)" stroke="#4b5563" stroke-width="1"/>
  <circle cx="50" cy="20" r="3" fill="#22c55e"/>

  <!-- Divider line -->
  <rect x="48" y="32" width="4" height="58" fill="#374151"/>

  <!-- Left breakers -->
  <rect x="18" y="35" width="28" height="12" rx="2" fill="url(#breakerGrad)" stroke="#4b5563" stroke-width="1"/>
  <circle cx="24" cy="41" r="2.5" fill="#22c55e"/>

  <rect x="18" y="50" width="28" height="12" rx="2" fill="url(#breakerGrad)" stroke="#4b5563" stroke-width="1"/>
  <circle cx="24" cy="56" r="2.5" fill="#22c55e"/>

  <rect x="18" y="65" width="28" height="12" rx="2" fill="url(#breakerGrad)" stroke="#4b5563" stroke-width="1"/>
  <circle cx="24" cy="71" r="2.5" fill="#ef4444"/>

  <!-- Right breakers -->
  <rect x="54" y="35" width="28" height="12" rx="2" fill="url(#breakerGrad)" stroke="#4b5563" stroke-width="1"/>
  <circle cx="76" cy="41" r="2.5" fill="#22c55e"/>

  <rect x="54" y="50" width="28" height="12" rx="2" fill="url(#breakerGrad)" stroke="#4b5563" stroke-width="1"/>
  <circle cx="76" cy="56" r="2.5" fill="#22c55e"/>

  <!-- Empty slot -->
  <rect x="54" y="65" width="28" height="12" rx="2" fill="#111827" stroke="#4b5563" stroke-width="1" stroke-dasharray="3,2"/>

  <!-- Lightning bolt accent -->
  <path d="M85 80 L78 88 L82 88 L75 98 L84 88 L80 88 Z" fill="#fbbf24"/>
</svg>
